<?xml version="1.0" standalone="no"?><!DOCTYPE svg PUBLIC "-//W3C//DTD SVG 1.1//EN" "http://www.w3.org/Graphics/SVG/1.1/DTD/svg11.dtd"><svg t="1784096181292" class="icon" viewBox="0 0 1024 1024" version="1.1" xmlns="http://www.w3.org/2000/svg" p-id="2474" xmlns:xlink="http://www.w3.org/1999/xlink" width="200" height="200"><path d="M485.632 222.176a48.064 48.064 0 0 1 52.736 0l256 168.224c13.504 8.864 21.632 24 21.632 40.128V768a48 48 0 0 1-48 48h-141.728a48 48 0 0 1-48-48v-129.984a16 16 0 0 0-16-16H461.76a16 16 0 0 0-16 16V768a48 48 0 0 1-48 48H256A48 48 0 0 1 208 768V430.528c0-16.16 8.128-31.264 21.632-40.128l256-168.224z m35.136 26.72a16 16 0 0 0-17.536 0l-256 168.256a16 16 0 0 0-7.232 13.376V768a16 16 0 0 0 16 16h141.728a16 16 0 0 0 16-16v-129.984a48 48 0 0 1 48-48h100.544a48 48 0 0 1 48 48V768a16 16 0 0 0 16 16H768a16 16 0 0 0 16-16V430.528a16 16 0 0 0-7.232-13.376l-256-168.256z" fill="#2c2c2c" p-id="2475"></path></svg>