<?xml version="1.0" standalone="no"?><!DOCTYPE svg PUBLIC "-//W3C//DTD SVG 1.1//EN" "http://www.w3.org/Graphics/SVG/1.1/DTD/svg11.dtd"><svg t="1784097072574" class="icon" viewBox="0 0 1024 1024" version="1.1" xmlns="http://www.w3.org/2000/svg" p-id="4613" xmlns:xlink="http://www.w3.org/1999/xlink" width="200" height="200"><path d="M325.632 546.816c-63.488-43.008-100.352-102.4-100.352-178.176 0-61.44 24.576-110.592 69.632-151.552 83.968-75.776 212.992-67.584 288.768 14.336 28.672 30.72 45.056 67.584 51.2 106.496 6.144 38.912 0 79.872-16.384 116.736-18.432 36.864-45.056 67.584-79.872 90.112 2.048 2.048 4.096 2.048 6.144 2.048 106.496 43.008 176.128 118.784 206.848 231.424 6.144 24.576 10.24 51.2 8.192 75.776 0 12.288-8.192 22.528-20.48 22.528-12.288 2.048-24.576-6.144-26.624-18.432-2.048-6.144 0-12.288-2.048-20.48-6.144-92.16-47.104-163.84-120.832-217.088-34.816-24.576-75.776-40.96-118.784-45.056-8.192-2.048-18.432-2.048-26.624-2.048-61.44 0-118.784 12.288-167.936 47.104-59.392 40.96-98.304 96.256-116.736 165.888-6.144 22.528-8.192 45.056-8.192 69.632 0 10.24-8.192 20.48-18.432 22.528-10.24 2.048-22.528-4.096-26.624-14.336-2.048-4.096-2.048-6.144-2.048-10.24 0-98.304 38.912-180.224 112.64-245.76 30.72-26.624 65.536-47.104 104.448-61.44 0 2.048 2.048 0 4.096 0-2.048 0 0 0 0 0z m264.192-176.128c0-88.064-69.632-155.648-151.552-157.696-88.064-4.096-163.84 65.536-163.84 157.696 0 88.064 69.632 157.696 155.648 159.744 88.064-2.048 159.744-71.68 159.744-159.744z m0 0" fill="#2c2c2c" p-id="4614"></path><path d="M747.52 530.432c2.048 0 2.048 2.048 4.096 2.048 79.872 34.816 131.072 96.256 155.648 180.224 8.192 26.624 12.288 53.248 10.24 79.872 0 12.288-8.192 22.528-20.48 24.576-14.336 0-24.576-8.192-24.576-20.48-2.048-12.288-2.048-22.528-2.048-34.816-4.096-38.912-18.432-75.776-40.96-106.496-30.72-43.008-69.632-71.68-120.832-86.016-18.432-6.144-36.864-6.144-55.296-8.192-10.24 0-20.48-8.192-22.528-18.432-2.048-10.24 4.096-22.528 14.336-26.624 4.096-2.048 8.192-2.048 10.24-2.048 51.2-2.048 86.016-28.672 106.496-73.728 28.672-59.392 8.192-131.072-45.056-167.936-18.432-12.288-40.96-20.48-61.44-20.48-16.384 0-26.624-10.24-26.624-24.576 0-12.288 10.24-22.528 22.528-22.528 32.768 0 63.488 8.192 90.112 26.624 45.056 30.72 69.632 71.68 77.824 124.928 8.192 63.488-10.24 116.736-55.296 161.792-4.096 4.096-10.24 8.192-16.384 12.288z m0 0" fill="#2c2c2c" p-id="4615"></path></svg>