<?xml version="1.0" standalone="no"?><!DOCTYPE svg PUBLIC "-//W3C//DTD SVG 1.1//EN" "http://www.w3.org/Graphics/SVG/1.1/DTD/svg11.dtd"><svg t="1784533440712" class="icon" viewBox="0 0 1024 1024" version="1.1" xmlns="http://www.w3.org/2000/svg" p-id="7776" xmlns:xlink="http://www.w3.org/1999/xlink" width="200" height="200"><path d="M407.917714 871.716571a75.337143 75.337143 0 0 1 74.386286 76.141715A75.337143 75.337143 0 0 1 407.917714 1024a75.337143 75.337143 0 0 1-74.386285-76.141714 75.337143 75.337143 0 0 1 74.386285-76.141715z m336.091429 0a75.337143 75.337143 0 0 1 74.386286 76.141715A75.337143 75.337143 0 0 1 744.009143 1024a75.337143 75.337143 0 0 1-74.386286-76.141714 75.337143 75.337143 0 0 1 74.386286-76.141715z m87.259428-60.416H348.891429c-53.833143 0-105.179429-44.617143-112.859429-99.766857l-56.466286-598.601143c-2.56-10.532571-12.8-21.065143-23.04-21.065142H43.593143C20.553143 91.867429 0 70.948571 0 44.617143 0 18.358857 20.48 0 43.593143 0h110.372571c53.833143 0 102.619429 44.617143 112.859429 99.766857l59.026286 598.674286c2.56 10.459429 12.8 20.992 23.04 20.992h482.377142c25.6 0 43.593143 20.992 43.593143 44.617143a43.008 43.008 0 0 1-43.593143 47.250285zM407.917714 627.565714c-23.04 0-43.593143-18.285714-43.593143-41.984a42.496 42.496 0 0 1 41.033143-47.250285L769.682286 512c30.72-2.633143 66.706286-28.891429 79.506285-57.782857l82.139429-183.808c0-2.56 0-2.56 2.56-5.193143 2.56-7.899429 2.56-15.798857 2.56-18.432-2.56-2.633143-7.68-5.193143-15.36-5.193143H348.891429a43.739429 43.739429 0 0 1-43.593143-44.617143c0-23.698286 20.48-44.617143 43.593143-44.617143h569.563428c38.546286 0 69.339429 15.652571 89.819429 44.617143 17.993143 28.818286 20.48 62.902857 7.68 99.693715L933.888 480.548571c0 2.633143 0 2.633143-2.56 5.266286-12.873143 31.451429-33.353143 60.416-64.146286 81.408a194.413714 194.413714 0 0 1-94.939428 36.717714l-364.251429 26.331429c2.486857-2.706286 0-2.706286 0-2.706286z" fill="#222222" p-id="7777"></path></svg>