<?xml version="1.0" standalone="no"?><!DOCTYPE svg PUBLIC "-//W3C//DTD SVG 1.1//EN" "http://www.w3.org/Graphics/SVG/1.1/DTD/svg11.dtd"><svg t="1784445320914" class="icon" viewBox="0 0 1024 1024" version="1.1" xmlns="http://www.w3.org/2000/svg" p-id="5783" xmlns:xlink="http://www.w3.org/1999/xlink" width="200" height="200"><path d="M896 554.666667h-85.333333V426.666667a298.666667 298.666667 0 1 0-597.333334 0v128H128A85.426667 85.426667 0 0 0 42.666667 640v170.666667a85.426667 85.426667 0 0 0 85.333333 85.333333h106.666667a21.333333 21.333333 0 0 0 21.333333-21.333333V426.666667c0-141.16 114.84-256 256-256s256 114.84 256 256v448a21.333333 21.333333 0 0 0 21.333333 21.333333h106.666667a85.426667 85.426667 0 0 0 85.333333-85.333333V640a85.426667 85.426667 0 0 0-85.333333-85.333333z" fill="#5C5C66" p-id="5784"></path></svg>