<?xml version="1.0" standalone="no"?><!DOCTYPE svg PUBLIC "-//W3C//DTD SVG 1.1//EN" "http://www.w3.org/Graphics/SVG/1.1/DTD/svg11.dtd"><svg t="1784099269500" class="icon" viewBox="0 0 1024 1024" version="1.1" xmlns="http://www.w3.org/2000/svg" p-id="17211" xmlns:xlink="http://www.w3.org/1999/xlink" width="200" height="200"><path d="M721.454545 721.454545V442.181818h-46.545454v-23.272727h69.818182v325.818182h-69.818182v-23.272728h46.545454zM418.909091 488.727273h-46.545455v46.545454h46.545455v-46.545454z m23.272727 0v69.818182h-93.090909v-93.09091h93.090909v23.272728z m116.363637-116.363637h-186.181819v46.545455h186.181819v-46.545455z m23.272727 0v69.818182H349.090909v-93.090909h232.727273v23.272727zM302.545455 721.454545h325.818181V302.545455H302.545455v418.90909z m-23.272728 0V279.272727h372.363637v465.454546H279.272727v-23.272728zM512 0l442.181818 256v512L512 1024 69.818182 768V256L512 0z m0 28.276364L93.090909 270.149818v483.700364l418.909091 241.873454 418.909091-241.873454V270.149818L512 28.276364zM465.454545 465.454545h116.363637v23.272728h-116.363637v-23.272728z m0 69.818182h116.363637v23.272728h-116.363637v-23.272728z m-116.363636 46.545455h232.727273v23.272727H349.090909v-23.272727z m0 69.818182h232.727273v23.272727H349.090909v-23.272727z" fill="#333333" p-id="17212"></path></svg>