<?xml version="1.0" standalone="no"?><!DOCTYPE svg PUBLIC "-//W3C//DTD SVG 1.1//EN" "http://www.w3.org/Graphics/SVG/1.1/DTD/svg11.dtd"><svg t="1784100701719" class="icon" viewBox="0 0 1024 1024" version="1.1" xmlns="http://www.w3.org/2000/svg" p-id="21195" xmlns:xlink="http://www.w3.org/1999/xlink" width="200" height="200"><path d="M878.656 612.864L703.936 512l174.72-100.864a96 96 0 0 0-96-166.272L608 345.728V144a96 96 0 1 0-192 0v201.728L241.28 244.864a96 96 0 1 0-96 166.272L320 512 145.28 612.864a96 96 0 0 0 96 166.272l174.72-100.928v201.792a96 96 0 1 0 192 0v-201.792l174.656 100.928a96 96 0 0 0 96-166.272" fill="#292E33" p-id="21196"></path></svg>