<?xml version="1.0" standalone="no"?><!DOCTYPE svg PUBLIC "-//W3C//DTD SVG 1.1//EN" "http://www.w3.org/Graphics/SVG/1.1/DTD/svg11.dtd"><svg t="1784098326437" class="icon" viewBox="0 0 1024 1024" version="1.1" xmlns="http://www.w3.org/2000/svg" p-id="28295" xmlns:xlink="http://www.w3.org/1999/xlink" width="200" height="200"><path d="M397.368889 128H170.666667A99.555556 99.555556 0 0 0 71.111111 227.555556v568.888888A99.555556 99.555556 0 0 0 170.666667 896h682.666666a99.555556 99.555556 0 0 0 99.555556-99.555556V332.572444l-0.142222-5.461333A99.555556 99.555556 0 0 0 853.333333 233.016889H511.687111l-25.457778-50.375111A99.555556 99.555556 0 0 0 397.368889 128zM170.666667 213.333333h226.702222a14.222222 14.222222 0 0 1 12.686222 7.793778l37.319111 73.813333a42.666667 42.666667 0 0 0 38.087111 23.409778H853.333333a14.222222 14.222222 0 0 1 14.222223 14.222222V796.444444a14.222222 14.222222 0 0 1-14.222223 14.222223H170.666667a14.222222 14.222222 0 0 1-14.222223-14.222223V227.555556a14.222222 14.222222 0 0 1 14.222223-14.222223z" fill="#000000" p-id="28296"></path></svg>